<svg xmlns="http://www.w3.org/2000/svg" width="15.002" height="14" viewBox="0 0 15.002 14">
  <defs>
    <style>
      .cls-1 {
        fill: #a6bad1;
      }
    </style>
  </defs>
  <path id="volume-off-icon-small" class="cls-1" d="M401.751,1268.267l-13.878,10.647a.513.513,0,0,1-.315.109.6.6,0,0,1-.561-.636.662.662,0,0,1,.248-.528l13.878-10.647a.513.513,0,0,1,.315-.109.6.6,0,0,1,.561.636A.662.662,0,0,1,401.751,1268.267Zm-13.033,2.823a1.2,1.2,0,0,1,1.119-1.272v0h3.721l3.8-3.527,0,0a1.037,1.037,0,0,1,.708-.292,1.185,1.185,0,0,1,1.112,1.157l-10.465,8.018Zm10.475,2.97v4.667a1.2,1.2,0,0,1-1.122,1.273,1.029,1.029,0,0,1-.659-.246l0,0-3.82-3.151h-.726l6.329-4.849Z" transform="translate(-386.997 -1266)"/>
</svg>
