<svg xmlns="http://www.w3.org/2000/svg" width="27.5" height="27.5" viewBox="0 0 27.5 27.5">
  <defs>
    <style>
      .cls-1, .cls-2 {
        fill: none;
      }

      .cls-1 {
        stroke: #7595b9;
        stroke-linecap: round;
        stroke-width: 1.5px;
      }

      .cls-3, .cls-4 {
        stroke: none;
      }

      .cls-4 {
        fill: #7595b9;
      }
    </style>
  </defs>
  <g id="组_6" data-name="组 6" transform="translate(0.75 0.75)">
    <circle id="椭圆_4" data-name="椭圆 4" class="cls-1" cx="13" cy="13" r="13"/>
    <path id="路径_9" data-name="路径 9" class="cls-1" d="M0-1.929V1.8" transform="translate(7.62 9.091)"/>
    <path id="路径_1" data-name="路径 1" class="cls-1" d="M457.762,909.917l-2.488,1.852,2.488,1.88" transform="translate(-438.138 -902.756)"/>
    <g id="路径_2" data-name="路径 2" class="cls-2" transform="translate(7.62 12.739)">
      <path class="cls-3" d="M5.38,3.075c5.275,0,5.38-1.582,5.38,1.389A5.38,5.38,0,1,1,0,4.464C0,1.493.105,3.075,5.38,3.075Z"/>
      <path class="cls-4" d="M 1.009485244750977 3.690183639526367 C 0.9999990463256836 3.93683385848999 1 4.244278907775879 1 4.464172840118408 C 1 6.879142761230469 2.964729785919189 8.843873023986816 5.37969970703125 8.843873023986816 C 7.794669628143311 8.843873023986816 9.7593994140625 6.879142761230469 9.7593994140625 4.464172840118408 C 9.7593994140625 4.244282245635986 9.759398460388184 3.936835765838623 9.749935150146484 3.690189838409424 C 9.632318496704102 3.706771850585938 9.498418807983398 3.72771167755127 9.35612964630127 3.74996280670166 C 8.528429985046387 3.879392623901367 7.277599811553955 4.075002670288086 5.37969970703125 4.075002670288086 C 3.481619834899902 4.075002670288086 2.230859756469727 3.879392623901367 1.403200149536133 3.749942779541016 C 1.260932922363281 3.727695941925049 1.12708568572998 3.706763744354248 1.009485244750977 3.690183639526367 M 0.6491670608520508 2.654270172119141 C 1.314165115356445 2.654270172119141 2.659324645996094 3.075002670288086 5.37969970703125 3.075002670288086 C 8.099752426147461 3.075002670288086 9.445152282714844 2.654311180114746 10.11023235321045 2.654270172119141 C 10.73485279083252 2.654231071472168 10.7593994140625 3.02521800994873 10.7593994140625 4.464172840118408 C 10.7593994140625 7.435302734375 8.350830078125 9.843873023986816 5.37969970703125 9.843873023986816 C 2.4085693359375 9.843873023986816 0 7.435302734375 0 4.464172840118408 C 0 3.025399208068848 0.02477645874023438 2.654270172119141 0.6491670608520508 2.654270172119141 Z"/>
    </g>
  </g>
</svg>
